<svg width="256" height="256" viewBox="0 0 256 256" fill="none" xmlns="http://www.w3.org/2000/svg">
<path fill-rule="evenodd" clip-rule="evenodd" d="M256 128C256 198.692 198.692 256 128 256C57.3075 256 0 198.692 0 128C0 57.3075 57.3075 0 128 0C198.692 0 256 57.3075 256 128ZM127.667 165C138.083 165 146.937 161.354 154.229 154.063C161.521 146.771 165.167 137.917 165.167 127.5C165.167 117.083 161.521 108.229 154.229 100.938C146.937 93.6458 138.083 90 127.667 90C117.25 90 108.396 93.6458 101.104 100.938C93.8125 108.229 90.1667 117.083 90.1667 127.5C90.1667 137.917 93.8125 146.771 101.104 154.063C108.396 161.354 117.25 165 127.667 165ZM111.729 143.438C116.104 147.813 121.417 150 127.667 150C133.917 150 139.229 147.813 143.604 143.438C147.979 139.063 150.167 133.75 150.167 127.5C150.167 121.25 147.979 115.938 143.604 111.563C139.229 107.188 133.917 105 127.667 105C121.417 105 116.104 107.188 111.729 111.563C107.354 115.938 105.167 121.25 105.167 127.5C105.167 133.75 107.354 139.063 111.729 143.438ZM72.25 173.021C88.9167 184.34 107.389 190 127.667 190C147.944 190 166.417 184.34 183.083 173.021C199.75 161.701 211.833 146.528 219.333 127.5C211.833 108.472 199.75 93.2986 183.083 81.9792C166.417 70.6597 147.944 65 127.667 65C107.389 65 88.9167 70.6597 72.25 81.9792C55.5833 93.2986 43.5 108.472 36 127.5C43.5 146.528 55.5833 161.701 72.25 173.021ZM127.667 173.333C143.361 173.333 157.771 169.201 170.896 160.938C184.021 152.674 194.056 141.528 201 127.5C194.056 113.472 184.021 102.326 170.896 94.0625C157.771 85.7986 143.361 81.6667 127.667 81.6667C111.972 81.6667 97.5625 85.7986 84.4375 94.0625C71.3125 102.326 61.2778 113.472 54.3333 127.5C61.2778 141.528 71.3125 152.674 84.4375 160.938C97.5625 169.201 111.972 173.333 127.667 173.333Z" fill="white"/>
</svg>
